inDegrees=no
num_controls=7
num_derivatives=13
num_iterations=109
num_multipliers=7
num_parameters=0
num_slacks=7
num_states=26
objective=0.469890
objective_accelerations=0.063329
objective_balance=0.002069
objective_effort=0.020185
objective_height=0.374712
objective_ligament=0.009595
solver_duration=1477.224266
status=Solve_Succeeded
success=true
DataType=double
version=3
OpenSimVersion=4.5
endheader
time	/jointset/ground_pelvis/pelvis_tilt/value	/jointset/ground_pelvis/pelvis_tx/value	/jointset/ground_pelvis/pelvis_ty/value	/jointset/hip_l/hip_flexion_l/value	/jointset/hip_l/hip_adduction_l/value	/jointset/hip_l/hip_rotation_l/value	/jointset/back/lumbar_extension/value	/jointset/patellofemoral_l/patellar_flexion_l/value	/jointset/knee_l/knee_flexion_l/value	/jointset/knee_l/knee_adduction_l/value	/jointset/knee_l/knee_rotation_l/value	/jointset/ankle_l/ankle_angle_l/value	/jointset/subtalar_l/subtalar_angle_l/value	/jointset/ground_pelvis/pelvis_tilt/speed	/jointset/ground_pelvis/pelvis_tx/speed	/jointset/ground_pelvis/pelvis_ty/speed	/jointset/hip_l/hip_flexion_l/speed	/jointset/hip_l/hip_adduction_l/speed	/jointset/hip_l/hip_rotation_l/speed	/jointset/back/lumbar_extension/speed	/jointset/patellofemoral_l/patellar_flexion_l/speed	/jointset/knee_l/knee_flexion_l/speed	/jointset/knee_l/knee_adduction_l/speed	/jointset/knee_l/knee_rotation_l/speed	/jointset/ankle_l/ankle_angle_l/speed	/jointset/subtalar_l/subtalar_angle_l/speed	/forceset/tau_hip_flexion_l	/forceset/tau_hip_adduction_l	/forceset/tau_hip_rotation_l	/forceset/tau_knee_flexion_l	/forceset/tau_ankle_angle_l	/forceset/tau_subtalar_angle_l	/forceset/tau_lumbar_extension	lambda_cid13_p0	lambda_cid13_p1	lambda_cid13_p2	lambda_cid13_p3	lambda_cid13_p4	lambda_cid13_p5	lambda_cid14_p0	/jointset/ground_pelvis/pelvis_tilt/accel	/jointset/ground_pelvis/pelvis_tx/accel	/jointset/ground_pelvis/pelvis_ty/accel	/jointset/hip_l/hip_flexion_l/accel	/jointset/hip_l/hip_adduction_l/accel	/jointset/hip_l/hip_rotation_l/accel	/jointset/back/lumbar_extension/accel	/jointset/patellofemoral_l/patellar_flexion_l/accel	/jointset/knee_l/knee_flexion_l/accel	/jointset/knee_l/knee_adduction_l/accel	/jointset/knee_l/knee_rotation_l/accel	/jointset/ankle_l/ankle_angle_l/accel	/jointset/subtalar_l/subtalar_angle_l/accel	gamma_cid13_p0	gamma_cid13_p1	gamma_cid13_p2	gamma_cid13_p3	gamma_cid13_p4	gamma_cid13_p5	gamma_cid14_p0
1	-0.8310289255686001	-0.1607768814356902	0.6120975499329264	2.025601019653701	-0.3354515677771114	0.04636656128132511	-0.4363170001080633	1.065668644595526	1.065668644595526	-0.003376720791845878	-0.1744967999516681	0.001066215182965738	0.08528382718772673	-0.1644779795033629	0.009560061509954072	0.03049131776010231	0.01874905599775569	-0.003872653648872749	-0.05836091478249365	7.421715378837578e-05	-0.16050945818472	-0.1605094581847201	-0.003873040525483682	7.285330265381751e-05	-0.02590416123937383	-0.01093581249130425	-0.3797547093214009	0.00414170211486191	-0.005889370562059006	-0.134040861631068	0.1210593686755715	0.01109361371255423	0.2810131747623423	8.196288918440468	-3.019403513464122	-3.493256399564227	-8.320484312714315	-545.8350787079596	-61.36453745545251	-2.003179596658398	3.197372829528705	0.7725895573636833	1.793963235352661	-7.667001830615149	-0.2329428315394044	-1.279408184588948	-0.04046003937558387	-3.854600533592953	-3.854600533592953	-0.4026716068023847	-0.03035131992395326	0.3547913867503494	-0.1160343691559293	-1.012954016682519e-08	-5.100832641371829e-08	6.436138986592011e-09	2.271988715033388e-09	-9.434327029372866e-09	2.936621175754722e-08	-1.305269085719209e-08
1.01	-0.8325149572826923	-0.1606427517368376	0.6124919077140371	2.025406612135837	-0.3355011630090464	0.04571972264297294	-0.4363169649458171	1.063870802231453	1.063870802231453	-0.003435069944742524	-0.1744963151692328	0.0008246716324239221	0.08516938217467218	-0.1327229746796523	0.01726876012967452	0.04836669159640662	-0.05761008993545182	-0.006038737920218104	-0.07099147903004593	-6.694897163824572e-05	-0.1990540912771993	-0.1990540912771992	-0.007804991445449429	3.130054163717964e-05	-0.02242566697377707	-0.01195185933030485	-0.379945853258736	0.004355637288821972	-0.005897393715820005	-0.1332334456980662	0.1205535866799319	0.01121716012854876	0.2810602080571237	8.06282047848525	-3.07324474231412	-3.457768016116758	-8.38589553357102	-545.5817741540468	-61.31641282248486	-2.039830758762579	3.165370891087523	0.7704417323231902	1.782289866102126	-7.617302512722913	-0.207286066462167	-1.252594752470063	-0.0009095391912540525	-3.853653019792206	-3.853653019792203	-0.3897009104378661	0.01002725730993771	0.3412071579679766	-0.09418143030204551	-9.966867307025974e-09	-5.903461331939628e-08	6.247632585480645e-09	-2.760757008485312e-09	-1.277539707187002e-08	4.026985569784815e-08	-1.584368181227819e-08
1.02	-0.8336832776320884	-0.1604314487081784	0.6130646123151771	2.024449226851031	-0.335572188052001	0.04494703552061891	-0.4363183343728381	1.061687661871912	1.061687661871911	-0.003532987422007666	-0.1744960290121076	0.0006172787668388013	0.08504481837542166	-0.1009357065641302	0.02499472747127354	0.0661606817660234	-0.1338464973906342	-0.008158615852766107	-0.083530611582866	-0.0002067006996669928	-0.237569057278351	-0.2375690572783511	-0.01178670539918306	3.312824063881256e-05	-0.0190740242480348	-0.01295956973050224	-0.3801369971960714	0.004569572462782035	-0.005905416869581003	-0.1324260297650644	0.1200478046842923	0.0113407065445433	0.281107241351905	7.925721397225197	-3.128021507228753	-3.420335464120103	-8.472582436576943	-545.4141445687944	-61.26674787328322	-2.084860077825034	3.203825487891008	0.7760433017393987	1.777686502015153	-7.64245413501012	-0.2237015637799341	-1.261121845642502	-0.04017715989600896	-3.848667115327501	-3.848667115327501	-0.4126242135559612	-0.02167522792029908	0.3294210787794511	-0.1143670813952875	-9.557017238176114e-09	-6.827995515468405e-08	1.479122365362301e-09	-8.09082458445989e-09	-1.60153196471957e-08	4.895890926049984e-08	-1.81822815828699e-08
1.03	-0.8345339151443486	-0.1601427934368058	0.6138147511894779	2.02273054062957	-0.3356641769820868	0.04404926730228378	-0.4363206908440974	1.059119540215503	1.059119540215503	-0.003670868518465387	-0.1744956253229993	0.0004426908734558759	0.08491020128774741	-0.069224180036497	0.03273955171602183	0.08384357296391648	-0.2098231709755397	-0.01022918875319801	-0.09602255695706217	-0.0002212896776795774	-0.2760490841639275	-0.2760490841639276	-0.01578488489776895	4.544571725436297e-05	-0.01587240504554791	-0.01396228817165628	-0.3799290907428527	0.004830608696959435	-0.005903844508627861	-0.1316300683042124	0.1195730965499599	0.0114938471817127	0.2809433532010479	7.817939621652459	-3.199892629181157	-3.381196383471619	-8.593572704921529	-544.9433221839677	-61.23219233412706	-2.13854097721416	3.149955863123723	0.7741830056557357	1.760058538672739	-7.565140737562577	-0.1972263595742656	-1.243177960782376	0.02439581442171236	-3.846737881866424	-3.846737881866424	-0.3927396919786481	0.01236508191157496	0.3112005113931247	-0.09297738712013176	-9.144644952907366e-09	-7.753773632598825e-08	-3.336122587603079e-09	-1.34239260568881e-08	-1.925421010550944e-08	5.762536496215511e-08	-2.051626511688513e-08
1.04	-0.8350684094657475	-0.1597765937190233	0.6147410125977567	2.020254114318794	-0.3357765698824569	0.04302659021471232	-0.4363218940889016	1.056166804808901	1.056166804808901	-0.003848596384702983	-0.174495162489833	0.0002992528061798059	0.08476560638333271	-0.0377070683918814	0.04050361675329793	0.1013851885616639	-0.2853945152537178	-0.01223940990960779	-0.1085123854301372	2.394459133253369e-05	-0.3144918073172522	-0.3144918073172522	-0.01975605935517225	4.49570522336281e-05	-0.01284405902667002	-0.01495513307859711	-0.3797211842896341	0.005091644931136836	-0.00590227214767627	-0.1308341068433604	0.1190983884156274	0.01164698781888211	0.2807794650501907	7.70643658257859	-3.272776585569912	-3.339994397284754	-8.734748772045542	-544.5587337509421	-61.19709347345107	-2.201161311348622	3.164942511287494	0.7798914602449724	1.749431381986017	-7.561388273664605	-0.2116312149755087	-1.260698465409363	0.01178748950893014	-3.841206368877128	-3.841206368877128	-0.4072232053262006	-0.02423645624755614	0.294766442057482	-0.112392374552644	-7.472086285604434e-09	-8.467846041424553e-08	-1.562400614231333e-09	-2.172172580488117e-08	-2.189569549078132e-08	6.837992586011394e-08	-2.337598084130329e-08
1.05	-0.8352878285633573	-0.159332573669516	0.6158419831092538	2.017023311435397	-0.3359088556792246	0.04187944151350904	-0.4363204157626289	1.052830141829171	1.052830141829171	-0.00406632516381746	-0.1744947245521591	0.000185352364110715	0.08461106802823709	-0.00612360542564521	0.04831172613586233	0.118785305340792	-0.3607659402499379	-0.01421414909650113	-0.1208763565603252	0.0002100584435730018	-0.3528037277151744	-0.3528037277151716	-0.02382246831979342	4.834795740627548e-05	-0.009952302883643044	-0.01595429535648849	-0.3791726479954171	0.005433504797815709	-0.005888712551531796	-0.1299620538597251	0.1184909991639037	0.01183310979836849	0.2803886616503836	7.57014619206597	-3.359991480179044	-3.291542369585011	-8.850653168297997	-543.8806295760576	-61.16379951597854	-2.273081964808306	3.163015973116316	0.7829645182325409	1.731755636138567	-7.525006023267863	-0.189841573187648	-1.218119519000684	0.01277400013428309	-3.820620458758922	-3.820620458758935	-0.411288774847003	0.01349095567457231	0.283935159395915	-0.09392719063185685	-5.760146793862937e-09	-9.175302646865759e-08	4.172265755884095e-10	-3.011217237398562e-08	-2.451851196752064e-08	7.919974004545724e-08	-2.625212569667154e-08
1.06	-0.8351898194745396	-0.1588101337579891	0.6171162455505945	2.013038797019905	-0.3360607781283895	0.04060987848456844	-0.4363189261644231	1.049111472528761	1.04911147252876	-0.004325705839141533	-0.1744940798870784	9.988047526597749e-05	0.08444648824311766	0.02577856889357653	0.0561875891572362	0.1360435745304145	-0.4361368216728445	-0.01616674038905054	-0.1329952509776	2.619897792070341e-05	-0.3908930714534747	-0.3908930714534748	-0.02808643859709169	8.630253357480935e-05	-0.007158348381799591	-0.01696341908335872	-0.3786241117012001	0.005775364664494579	-0.005875152955387318	-0.1290900008760898	0.1178836099121798	0.01201923177785487	0.2799978582505765	7.4300225759484	-3.44835005889023	-3.240834732238411	-8.986020914441076	-543.2899502518651	-61.13131833274402	-2.354662084195293	3.228684781884604	0.7934421880068682	1.721061864084914	-7.561279559001933	-0.207201636106723	-1.211683122826727	-0.06220717406962303	-3.796691036953896	-3.796691036953896	-0.44673546786162	-0.01732372204837879	0.275206113819986	-0.1143846643484123	-5.706303226290468e-09	-1.001829550108809e-07	-9.595950476351066e-09	-3.259368179022815e-08	-2.746566883096399e-08	8.166622710574366e-08	-2.710300242092407e-08
1.07	-0.8347719709909051	-0.1582086073068038	0.6185622854309336	2.008301311276832	-0.3362320448873425	0.03921973741827937	-0.4363202294200713	1.045012842728922	1.045012842728922	-0.004628176133446915	-0.1744931453301095	4.173327941571739e-05	0.08427180973628795	0.05776480483454879	0.06412768575031294	0.1531311548330094	-0.5112853690087891	-0.01807224531644451	-0.145050973804416	-0.0002570301883278243	-0.4288141575952285	-0.4288141575952232	-0.03238391689632242	8.537463163650779e-05	-0.004499301657544226	-0.0179658665048012	-0.3776970722244014	0.006108295321947652	-0.00585279061277537	-0.1283176300288126	0.1174506855661385	0.01225208340809057	0.2794338416897227	7.36311087110203	-3.564338797332675	-3.191985728863671	-9.205072425470764	-542.4698363904504	-61.15258375068114	-2.446336649943222	3.179640028419428	0.7957841127069657	1.69761297975484	-7.480403793528596	-0.1800505461212404	-1.205243222155121	-0.006907800021162003	-3.787002185190687	-3.787002185190131	-0.4177265004637612	0.006240865935020233	0.2570173140140284	-0.09219252992379848	-5.740656250429128e-09	-1.08684977302456e-07	-2.024704264753313e-08	-3.476088603876522e-08	-3.043007784263628e-08	8.368838825512273e-08	-2.784615211692574e-08
1.08	-0.8340350507422176	-0.157527381746138	0.62017820248758	2.002814587765872	-0.3364219318205826	0.03770849385181297	-0.4363234703698055	1.040535565111185	1.040535565111185	-0.00497291570864665	-0.1744926764141196	9.3292232651521e-06	0.08408730320546748	0.08959292190415731	0.07212741105334526	0.1700190097919272	-0.5859843752502488	-0.01989077524645874	-0.1572157510130677	-0.0003613398393241261	-0.4666226350331648	-0.4666226350331644	-0.03654029477596111	-6.825662238751375e-06	-0.002009720441859975	-0.01892902388150899	-0.3767700327476025	0.006441225979400726	-0.005830428270163704	-0.1275452591815343	0.1170177612200971	0.01248493503832628	0.2788698251288689	7.292294642761201	-3.681635516776864	-3.140653002159161	-9.44288811297746	-541.7375713460227	-61.17607089538902	-2.548558872634584	3.197061007611855	0.8053679299979821	1.681116795349522	-7.471371340104935	-0.1898066366307747	-1.233493999193078	-0.02642327101917784	-3.774169296190372	-3.774169296192448	-0.4185153839441548	-0.03557820043577032	0.2413130121057839	-0.1065266554014729	-6.077123280223995e-09	-1.129525998341625e-07	-1.430591350255193e-08	-3.685328528687818e-08	-3.438820754630958e-08	9.190280810648921e-08	-3.003148378093951e-08
